<svg xmlns="http://www.w3.org/2000/svg" width="1600" height="1000" viewBox="0 0 1600 1000">
  <defs>
    <linearGradient id="g" x1="0" y1="0" x2="1" y2="1">
      <stop offset="0" stop-color="#6d28d9" stop-opacity="0.35"/>
      <stop offset="0.55" stop-color="#0ea5e9" stop-opacity="0.25"/>
      <stop offset="1" stop-color="#22c55e" stop-opacity="0.18"/>
    </linearGradient>
    <linearGradient id="s" x1="0" y1="0" x2="0" y2="1">
      <stop offset="0" stop-color="#0b1020" stop-opacity="0.02"/>
      <stop offset="1" stop-color="#0b1020" stop-opacity="0.10"/>
    </linearGradient>
  </defs>
  <rect width="1600" height="1000" rx="28" fill="#0b1020" fill-opacity="0.04"/>
  <rect x="24" y="24" width="1552" height="952" rx="24" fill="url(#g)"/>
  <rect x="24" y="24" width="1552" height="952" rx="24" fill="url(#s)"/>
  <g fill="#0b1020" fill-opacity="0.18">
    <rect x="72" y="86" width="540" height="44" rx="12"/>
    <rect x="72" y="156" width="820" height="26" rx="10"/>
    <rect x="72" y="200" width="700" height="26" rx="10"/>
    <rect x="72" y="244" width="620" height="26" rx="10"/>
    <rect x="72" y="328" width="420" height="56" rx="16"/>
    <rect x="510" y="328" width="340" height="56" rx="16"/>
  </g>
  <g fill="#0b1020" fill-opacity="0.14">
    <rect x="72" y="430" width="720" height="420" rx="22"/>
    <rect x="820" y="430" width="704" height="200" rx="22"/>
    <rect x="820" y="650" width="704" height="200" rx="22"/>
  </g>
  <g>
    <text x="88" y="930" font-family="ui-sans-serif, system-ui, -apple-system, Segoe UI, Roboto, Helvetica, Arial" font-size="44" fill="#0b1020" fill-opacity="0.48" font-weight="700">
      Screenshot placeholder
    </text>
    <text x="88" y="972" font-family="ui-sans-serif, system-ui, -apple-system, Segoe UI, Roboto, Helvetica, Arial" font-size="24" fill="#0b1020" fill-opacity="0.42">
      Replace with your real project screenshot
    </text>
  </g>
</svg>
